# xmcd CD database file
#
# Track frame offsets:
#	150
#	24550
#	50287
#	72362
#	98237
#	117875
#	138575
#	164975
#	198725
#	227450
#
# Disc length: 3379 seconds
#
# Revision: 0
# Processed by: cddbd v1.5.2PL0 Copyright (c) Steve Scherf et al.
# Submitted via: CDex 1.70beta2
#
DISCID=8f0d310a
DTITLE=Chistoph Spendel Group Featuring Annie Whitehead - ... Ready For Take Off
DYEAR=1988
DGENRE=Jazz
TTITLE0=Salsito
TTITLE1=Rain
TTITLE2=Carly
TTITLE3=Queens Plaza
TTITLE4=Ready For Take Off
TTITLE5=Downtown
TTITLE6=Monday In July
TTITLE7=Tapsi Strikes Again
TTITLE8=Words Of Desire
TTITLE9=Spain
EXTD=YEAR: 1988
EXTT0=
EXTT1=
EXTT2=
EXTT3=
EXTT4=
EXTT5=
EXTT6=
EXTT7=
EXTT8=
EXTT9=
PLAYORDER=
